<svg width="75" height="74" viewBox="0 0 75 74" fill="none" xmlns="http://www.w3.org/2000/svg">
<g filter="url(#filter0_f_93_54)">
<mask id="path-1-inside-1_93_54" fill="white">
<path d="M72.5241 36.8358C72.5241 56.0424 56.954 71.6124 37.7474 71.6124C18.5408 71.6124 2.9707 56.0424 2.9707 36.8358C2.9707 17.6291 18.5408 2.05908 37.7474 2.05908C56.954 2.05908 72.5241 17.6291 72.5241 36.8358ZM9.9689 36.8358C9.9689 52.1774 22.4058 64.6142 37.7474 64.6142C53.089 64.6142 65.5259 52.1774 65.5259 36.8358C65.5259 21.4941 53.089 9.05728 37.7474 9.05728C22.4058 9.05728 9.9689 21.4941 9.9689 36.8358Z"/>
</mask>
<path d="M72.5241 36.8358C72.5241 56.0424 56.954 71.6124 37.7474 71.6124C18.5408 71.6124 2.9707 56.0424 2.9707 36.8358C2.9707 17.6291 18.5408 2.05908 37.7474 2.05908C56.954 2.05908 72.5241 17.6291 72.5241 36.8358ZM9.9689 36.8358C9.9689 52.1774 22.4058 64.6142 37.7474 64.6142C53.089 64.6142 65.5259 52.1774 65.5259 36.8358C65.5259 21.4941 53.089 9.05728 37.7474 9.05728C22.4058 9.05728 9.9689 21.4941 9.9689 36.8358Z" fill="#EEEEEE"/>
<path d="M72.5241 36.8358C72.5241 56.0424 56.954 71.6124 37.7474 71.6124C18.5408 71.6124 2.9707 56.0424 2.9707 36.8358C2.9707 17.6291 18.5408 2.05908 37.7474 2.05908C56.954 2.05908 72.5241 17.6291 72.5241 36.8358ZM9.9689 36.8358C9.9689 52.1774 22.4058 64.6142 37.7474 64.6142C53.089 64.6142 65.5259 52.1774 65.5259 36.8358C65.5259 21.4941 53.089 9.05728 37.7474 9.05728C22.4058 9.05728 9.9689 21.4941 9.9689 36.8358Z" stroke="#CDCDCD" stroke-width="2" mask="url(#path-1-inside-1_93_54)"/>
</g>
<defs>
<filter id="filter0_f_93_54" x="0.970703" y="0.059082" width="73.5537" height="73.5533" filterUnits="userSpaceOnUse" color-interpolation-filters="sRGB">
<feFlood flood-opacity="0" result="BackgroundImageFix"/>
<feBlend mode="normal" in="SourceGraphic" in2="BackgroundImageFix" result="shape"/>
<feGaussianBlur stdDeviation="1" result="effect1_foregroundBlur_93_54"/>
</filter>
</defs>
</svg>
